<mxfile host="app.diagrams.net" agent="Mozilla/5.0 (X11; Linux x86_64) AppleWebKit/537.36 (KHTML, like Gecko) Chrome/128.0.0.0 Safari/537.36" version="24.7.8">
  <diagram name="Página-1" id="6okRGKQAb8Z2zYldWAcW">
    <mxGraphModel dx="1110" dy="1735" grid="1" gridSize="10" guides="1" tooltips="1" connect="1" arrows="1" fold="1" page="1" pageScale="1" pageWidth="827" pageHeight="1169" math="0" shadow="0">
      <root>
        <mxCell id="0" />
        <mxCell id="1" parent="0" />
        <mxCell id="hzmN8voi_zmFuD12OqxF-22" style="edgeStyle=orthogonalEdgeStyle;rounded=0;orthogonalLoop=1;jettySize=auto;html=1;exitX=0.5;exitY=0;exitDx=0;exitDy=0;entryX=0;entryY=0.5;entryDx=0;entryDy=0;strokeWidth=2;endArrow=none;endFill=0;" parent="1" source="GWfHcdHAM4uaOT78eh-u-1" target="hzmN8voi_zmFuD12OqxF-23" edge="1">
          <mxGeometry relative="1" as="geometry">
            <mxPoint x="1580" y="-210" as="targetPoint" />
          </mxGeometry>
        </mxCell>
        <mxCell id="GWfHcdHAM4uaOT78eh-u-1" value="&lt;font style=&quot;font-size: 16px;&quot;&gt;&lt;b&gt;Alumno&lt;/b&gt;&lt;/font&gt;" style="whiteSpace=wrap;html=1;align=center;strokeWidth=2;" parent="1" vertex="1">
          <mxGeometry x="350" y="190" width="120" height="40" as="geometry" />
        </mxCell>
        <mxCell id="GWfHcdHAM4uaOT78eh-u-2" value="&lt;font style=&quot;font-size: 16px;&quot;&gt;&lt;b&gt;NoGraduado&lt;/b&gt;&lt;/font&gt;" style="whiteSpace=wrap;html=1;align=center;strokeWidth=2;" parent="1" vertex="1">
          <mxGeometry x="260" y="320" width="100" height="40" as="geometry" />
        </mxCell>
        <mxCell id="GWfHcdHAM4uaOT78eh-u-3" value="&lt;font style=&quot;font-size: 16px;&quot;&gt;&lt;b&gt;Graduado&lt;/b&gt;&lt;/font&gt;" style="whiteSpace=wrap;html=1;align=center;strokeWidth=2;" parent="1" vertex="1">
          <mxGeometry x="490" y="320" width="100" height="40" as="geometry" />
        </mxCell>
        <mxCell id="GWfHcdHAM4uaOT78eh-u-5" value="&lt;b style=&quot;font-size: 16px;&quot;&gt;&lt;font style=&quot;font-size: 16px;&quot;&gt;d&lt;/font&gt;&lt;/b&gt;&lt;div style=&quot;font-size: 16px;&quot;&gt;&lt;br&gt;&lt;/div&gt;" style="strokeWidth=2;html=1;shape=mxgraph.flowchart.merge_or_storage;whiteSpace=wrap;" parent="1" vertex="1">
          <mxGeometry x="384.5" y="280" width="51" height="40" as="geometry" />
        </mxCell>
        <mxCell id="GWfHcdHAM4uaOT78eh-u-6" value="" style="shape=link;html=1;rounded=0;entryX=0.5;entryY=1;entryDx=0;entryDy=0;exitX=0.5;exitY=0;exitDx=0;exitDy=0;exitPerimeter=0;strokeWidth=2;" parent="1" source="GWfHcdHAM4uaOT78eh-u-5" target="GWfHcdHAM4uaOT78eh-u-1" edge="1">
          <mxGeometry relative="1" as="geometry">
            <mxPoint x="410" y="270" as="sourcePoint" />
            <mxPoint x="280" y="210" as="targetPoint" />
          </mxGeometry>
        </mxCell>
        <mxCell id="GWfHcdHAM4uaOT78eh-u-8" value="&lt;div&gt;&lt;br&gt;&lt;/div&gt;&lt;div&gt;&lt;br&gt;&lt;/div&gt;" style="resizable=0;html=1;whiteSpace=wrap;align=right;verticalAlign=bottom;" parent="GWfHcdHAM4uaOT78eh-u-6" connectable="0" vertex="1">
          <mxGeometry x="1" relative="1" as="geometry" />
        </mxCell>
        <mxCell id="GWfHcdHAM4uaOT78eh-u-9" value="" style="endArrow=none;html=1;rounded=0;entryX=0.249;entryY=0.555;entryDx=0;entryDy=0;entryPerimeter=0;exitX=0.5;exitY=0;exitDx=0;exitDy=0;strokeWidth=2;" parent="1" source="GWfHcdHAM4uaOT78eh-u-2" target="GWfHcdHAM4uaOT78eh-u-5" edge="1">
          <mxGeometry relative="1" as="geometry">
            <mxPoint x="210" y="260" as="sourcePoint" />
            <mxPoint x="370" y="260" as="targetPoint" />
          </mxGeometry>
        </mxCell>
        <mxCell id="GWfHcdHAM4uaOT78eh-u-10" value="" style="endArrow=none;html=1;rounded=0;entryX=0.762;entryY=0.507;entryDx=0;entryDy=0;entryPerimeter=0;exitX=0.5;exitY=0;exitDx=0;exitDy=0;strokeWidth=2;" parent="1" source="GWfHcdHAM4uaOT78eh-u-3" target="GWfHcdHAM4uaOT78eh-u-5" edge="1">
          <mxGeometry relative="1" as="geometry">
            <mxPoint x="250" y="350" as="sourcePoint" />
            <mxPoint x="403" y="313" as="targetPoint" />
          </mxGeometry>
        </mxCell>
        <mxCell id="GWfHcdHAM4uaOT78eh-u-12" value="" style="endArrow=none;html=1;rounded=0;entryX=0;entryY=0.5;entryDx=0;entryDy=0;strokeWidth=2;" parent="1" source="GWfHcdHAM4uaOT78eh-u-14" target="GWfHcdHAM4uaOT78eh-u-2" edge="1">
          <mxGeometry relative="1" as="geometry">
            <mxPoint x="170" y="340" as="sourcePoint" />
            <mxPoint x="277" y="400" as="targetPoint" />
          </mxGeometry>
        </mxCell>
        <mxCell id="GWfHcdHAM4uaOT78eh-u-15" value="&lt;font style=&quot;font-size: 16px;&quot;&gt;&lt;b&gt;Título&lt;/b&gt;&lt;/font&gt;" style="ellipse;whiteSpace=wrap;html=1;align=center;strokeWidth=2;" parent="1" vertex="1">
          <mxGeometry x="650" y="320" width="100" height="40" as="geometry" />
        </mxCell>
        <mxCell id="GWfHcdHAM4uaOT78eh-u-16" value="" style="endArrow=none;html=1;rounded=0;entryX=0;entryY=0.5;entryDx=0;entryDy=0;strokeWidth=2;" parent="1" edge="1" target="GWfHcdHAM4uaOT78eh-u-15">
          <mxGeometry relative="1" as="geometry">
            <mxPoint x="590" y="339.52" as="sourcePoint" />
            <mxPoint x="650" y="339.52" as="targetPoint" />
          </mxGeometry>
        </mxCell>
        <mxCell id="GWfHcdHAM4uaOT78eh-u-17" value="" style="endArrow=none;html=1;rounded=0;entryX=0;entryY=0;entryDx=0;entryDy=0;strokeWidth=2;exitX=0.5;exitY=1;exitDx=0;exitDy=0;" parent="1" source="GWfHcdHAM4uaOT78eh-u-23" target="GWfHcdHAM4uaOT78eh-u-1" edge="1">
          <mxGeometry relative="1" as="geometry">
            <mxPoint x="290" y="110" as="sourcePoint" />
            <mxPoint x="370" y="100" as="targetPoint" />
          </mxGeometry>
        </mxCell>
        <mxCell id="GWfHcdHAM4uaOT78eh-u-18" value="" style="endArrow=none;html=1;rounded=0;entryX=0.75;entryY=0;entryDx=0;entryDy=0;strokeWidth=2;exitX=0.246;exitY=0.527;exitDx=0;exitDy=0;exitPerimeter=0;" parent="1" source="GWfHcdHAM4uaOT78eh-u-27" target="GWfHcdHAM4uaOT78eh-u-1" edge="1">
          <mxGeometry relative="1" as="geometry">
            <mxPoint x="410" y="-60" as="sourcePoint" />
            <mxPoint x="442.5" y="140" as="targetPoint" />
          </mxGeometry>
        </mxCell>
        <mxCell id="GWfHcdHAM4uaOT78eh-u-23" value="&lt;font style=&quot;font-size: 16px;&quot;&gt;&lt;b&gt;NumCuenta&lt;/b&gt;&lt;/font&gt;" style="ellipse;whiteSpace=wrap;html=1;align=center;fontStyle=4;strokeWidth=2;" parent="1" vertex="1">
          <mxGeometry x="210" y="130" width="100" height="40" as="geometry" />
        </mxCell>
        <mxCell id="GWfHcdHAM4uaOT78eh-u-25" value="" style="endArrow=none;html=1;rounded=0;entryX=0.25;entryY=0;entryDx=0;entryDy=0;strokeWidth=2;exitX=0.5;exitY=1;exitDx=0;exitDy=0;" parent="1" source="GWfHcdHAM4uaOT78eh-u-28" target="GWfHcdHAM4uaOT78eh-u-1" edge="1">
          <mxGeometry relative="1" as="geometry">
            <mxPoint x="580" y="110" as="sourcePoint" />
            <mxPoint x="395" y="190" as="targetPoint" />
          </mxGeometry>
        </mxCell>
        <mxCell id="GWfHcdHAM4uaOT78eh-u-27" value="&lt;b style=&quot;font-size: 16px;&quot;&gt;&lt;font style=&quot;font-size: 16px;&quot;&gt;d&lt;/font&gt;&lt;/b&gt;&lt;div style=&quot;font-size: 16px;&quot;&gt;&lt;br&gt;&lt;/div&gt;" style="strokeWidth=2;html=1;shape=mxgraph.flowchart.merge_or_storage;whiteSpace=wrap;" parent="1" vertex="1">
          <mxGeometry x="749" y="110" width="51" height="40" as="geometry" />
        </mxCell>
        <mxCell id="GWfHcdHAM4uaOT78eh-u-28" value="&lt;b&gt;&lt;font style=&quot;font-size: 16px;&quot;&gt;Teléfono&lt;/font&gt;&lt;/b&gt;" style="ellipse;shape=doubleEllipse;margin=3;whiteSpace=wrap;html=1;align=center;strokeWidth=2;" parent="1" vertex="1">
          <mxGeometry x="260" y="60" width="100" height="40" as="geometry" />
        </mxCell>
        <mxCell id="GWfHcdHAM4uaOT78eh-u-29" value="" style="endArrow=none;html=1;rounded=0;strokeWidth=2;exitX=0.791;exitY=0.467;exitDx=0;exitDy=0;exitPerimeter=0;entryX=0.25;entryY=0;entryDx=0;entryDy=0;" parent="1" source="GWfHcdHAM4uaOT78eh-u-27" target="GWfHcdHAM4uaOT78eh-u-30" edge="1">
          <mxGeometry relative="1" as="geometry">
            <mxPoint x="562" y="-89" as="sourcePoint" />
            <mxPoint x="770" y="160" as="targetPoint" />
          </mxGeometry>
        </mxCell>
        <mxCell id="GWfHcdHAM4uaOT78eh-u-87" style="edgeStyle=orthogonalEdgeStyle;rounded=0;orthogonalLoop=1;jettySize=auto;html=1;shape=link;strokeWidth=2;" parent="1" source="GWfHcdHAM4uaOT78eh-u-30" target="GWfHcdHAM4uaOT78eh-u-90" edge="1">
          <mxGeometry relative="1" as="geometry">
            <mxPoint x="1280" y="510" as="targetPoint" />
            <Array as="points">
              <mxPoint x="1150" y="510" />
            </Array>
          </mxGeometry>
        </mxCell>
        <mxCell id="GWfHcdHAM4uaOT78eh-u-89" style="rounded=0;orthogonalLoop=1;jettySize=auto;html=1;endArrow=none;endFill=0;strokeWidth=2;exitX=0.25;exitY=1;exitDx=0;exitDy=0;" parent="1" source="GWfHcdHAM4uaOT78eh-u-30" target="GWfHcdHAM4uaOT78eh-u-91" edge="1">
          <mxGeometry relative="1" as="geometry">
            <mxPoint x="1130" y="550" as="targetPoint" />
          </mxGeometry>
        </mxCell>
        <mxCell id="GWfHcdHAM4uaOT78eh-u-30" value="&lt;font style=&quot;font-size: 16px;&quot;&gt;&lt;b&gt;Profesor&lt;/b&gt;&lt;/font&gt;" style="whiteSpace=wrap;html=1;align=center;strokeWidth=2;" parent="1" vertex="1">
          <mxGeometry x="1070" y="190" width="120" height="40" as="geometry" />
        </mxCell>
        <mxCell id="GWfHcdHAM4uaOT78eh-u-32" value="" style="shape=link;html=1;rounded=0;exitX=0.5;exitY=0;exitDx=0;exitDy=0;exitPerimeter=0;strokeWidth=2;entryX=0.5;entryY=1;entryDx=0;entryDy=0;" parent="1" source="GWfHcdHAM4uaOT78eh-u-27" target="GWfHcdHAM4uaOT78eh-u-34" edge="1">
          <mxGeometry relative="1" as="geometry">
            <mxPoint x="774.02" y="90" as="sourcePoint" />
            <mxPoint x="774" y="80" as="targetPoint" />
          </mxGeometry>
        </mxCell>
        <mxCell id="GWfHcdHAM4uaOT78eh-u-33" value="&lt;div&gt;&lt;br&gt;&lt;/div&gt;&lt;div&gt;&lt;br&gt;&lt;/div&gt;" style="resizable=0;html=1;whiteSpace=wrap;align=right;verticalAlign=bottom;" parent="GWfHcdHAM4uaOT78eh-u-32" connectable="0" vertex="1">
          <mxGeometry x="1" relative="1" as="geometry" />
        </mxCell>
        <mxCell id="GWfHcdHAM4uaOT78eh-u-34" value="&lt;font style=&quot;font-size: 16px;&quot;&gt;&lt;b&gt;Persona&lt;/b&gt;&lt;/font&gt;" style="whiteSpace=wrap;html=1;align=center;strokeWidth=2;" parent="1" vertex="1">
          <mxGeometry x="724" y="40" width="100" height="40" as="geometry" />
        </mxCell>
        <mxCell id="GWfHcdHAM4uaOT78eh-u-35" value="" style="endArrow=none;html=1;rounded=0;strokeWidth=2;exitX=0.5;exitY=0;exitDx=0;exitDy=0;entryX=0.5;entryY=1;entryDx=0;entryDy=0;" parent="1" source="GWfHcdHAM4uaOT78eh-u-34" target="GWfHcdHAM4uaOT78eh-u-36" edge="1">
          <mxGeometry relative="1" as="geometry">
            <mxPoint x="798.5" y="169" as="sourcePoint" />
            <mxPoint x="769.5" y="-10" as="targetPoint" />
          </mxGeometry>
        </mxCell>
        <mxCell id="GWfHcdHAM4uaOT78eh-u-36" value="&lt;font style=&quot;font-size: 16px;&quot;&gt;&lt;b&gt;NombreC&lt;/b&gt;&lt;/font&gt;" style="ellipse;whiteSpace=wrap;html=1;align=center;strokeWidth=2;" parent="1" vertex="1">
          <mxGeometry x="724" y="-50" width="100" height="40" as="geometry" />
        </mxCell>
        <mxCell id="GWfHcdHAM4uaOT78eh-u-37" value="" style="endArrow=none;html=1;rounded=0;strokeWidth=2;exitX=0.5;exitY=1;exitDx=0;exitDy=0;" parent="1" source="GWfHcdHAM4uaOT78eh-u-40" target="GWfHcdHAM4uaOT78eh-u-36" edge="1">
          <mxGeometry relative="1" as="geometry">
            <mxPoint x="669.5" y="-130" as="sourcePoint" />
            <mxPoint x="784.5" as="targetPoint" />
          </mxGeometry>
        </mxCell>
        <mxCell id="GWfHcdHAM4uaOT78eh-u-38" value="" style="endArrow=none;html=1;rounded=0;strokeWidth=2;entryX=0.5;entryY=0;entryDx=0;entryDy=0;exitX=0.5;exitY=1;exitDx=0;exitDy=0;" parent="1" source="GWfHcdHAM4uaOT78eh-u-41" target="GWfHcdHAM4uaOT78eh-u-36" edge="1">
          <mxGeometry relative="1" as="geometry">
            <mxPoint x="774.5" y="-150" as="sourcePoint" />
            <mxPoint x="764.5" y="-38" as="targetPoint" />
          </mxGeometry>
        </mxCell>
        <mxCell id="GWfHcdHAM4uaOT78eh-u-39" value="" style="endArrow=none;html=1;rounded=0;strokeWidth=2;entryX=1;entryY=0;entryDx=0;entryDy=0;exitX=0.5;exitY=1;exitDx=0;exitDy=0;" parent="1" source="GWfHcdHAM4uaOT78eh-u-42" target="GWfHcdHAM4uaOT78eh-u-36" edge="1">
          <mxGeometry relative="1" as="geometry">
            <mxPoint x="839.5" y="-130" as="sourcePoint" />
            <mxPoint x="774.5" y="-28" as="targetPoint" />
          </mxGeometry>
        </mxCell>
        <mxCell id="GWfHcdHAM4uaOT78eh-u-40" value="&lt;font style=&quot;font-size: 16px;&quot;&gt;&lt;b&gt;Nombre&lt;/b&gt;&lt;/font&gt;" style="ellipse;whiteSpace=wrap;html=1;align=center;strokeWidth=2;" parent="1" vertex="1">
          <mxGeometry x="609.5" y="-90" width="100" height="40" as="geometry" />
        </mxCell>
        <mxCell id="GWfHcdHAM4uaOT78eh-u-41" value="&lt;font style=&quot;font-size: 16px;&quot;&gt;&lt;b&gt;ApMaterno&lt;/b&gt;&lt;/font&gt;" style="ellipse;whiteSpace=wrap;html=1;align=center;strokeWidth=2;" parent="1" vertex="1">
          <mxGeometry x="724" y="-120" width="100" height="40" as="geometry" />
        </mxCell>
        <mxCell id="GWfHcdHAM4uaOT78eh-u-42" value="&lt;font style=&quot;font-size: 16px;&quot;&gt;&lt;b&gt;ApPaterno&lt;/b&gt;&lt;/font&gt;" style="ellipse;whiteSpace=wrap;html=1;align=center;strokeWidth=2;" parent="1" vertex="1">
          <mxGeometry x="839.5" y="-90" width="100" height="40" as="geometry" />
        </mxCell>
        <mxCell id="GWfHcdHAM4uaOT78eh-u-43" value="" style="endArrow=none;html=1;rounded=0;entryX=0.75;entryY=0;entryDx=0;entryDy=0;strokeWidth=2;exitX=0.5;exitY=1;exitDx=0;exitDy=0;" parent="1" source="GWfHcdHAM4uaOT78eh-u-44" target="GWfHcdHAM4uaOT78eh-u-30" edge="1">
          <mxGeometry relative="1" as="geometry">
            <mxPoint x="1230" y="100" as="sourcePoint" />
            <mxPoint x="1135" y="130" as="targetPoint" />
          </mxGeometry>
        </mxCell>
        <mxCell id="GWfHcdHAM4uaOT78eh-u-44" value="&lt;font style=&quot;font-size: 16px;&quot;&gt;&lt;b&gt;NumProfesor&lt;/b&gt;&lt;/font&gt;" style="ellipse;whiteSpace=wrap;html=1;align=center;fontStyle=4;strokeWidth=2;" parent="1" vertex="1">
          <mxGeometry x="1110" y="70" width="100" height="40" as="geometry" />
        </mxCell>
        <mxCell id="GWfHcdHAM4uaOT78eh-u-45" value="" style="endArrow=none;html=1;rounded=0;entryX=0.613;entryY=0;entryDx=0;entryDy=0;strokeWidth=2;exitX=0.5;exitY=1;exitDx=0;exitDy=0;entryPerimeter=0;" parent="1" source="GWfHcdHAM4uaOT78eh-u-46" target="GWfHcdHAM4uaOT78eh-u-30" edge="1">
          <mxGeometry relative="1" as="geometry">
            <mxPoint x="1152" y="100" as="sourcePoint" />
            <mxPoint x="1175" y="200" as="targetPoint" />
          </mxGeometry>
        </mxCell>
        <mxCell id="GWfHcdHAM4uaOT78eh-u-46" value="&lt;font style=&quot;font-size: 16px;&quot;&gt;&lt;b&gt;Título&lt;/b&gt;&lt;/font&gt;" style="ellipse;whiteSpace=wrap;html=1;align=center;strokeWidth=2;" parent="1" vertex="1">
          <mxGeometry x="1000" y="50" width="100" height="40" as="geometry" />
        </mxCell>
        <mxCell id="GWfHcdHAM4uaOT78eh-u-47" value="&lt;font style=&quot;font-size: 16px;&quot;&gt;&lt;b&gt;Ser&lt;/b&gt;&lt;/font&gt;" style="shape=rhombus;perimeter=rhombusPerimeter;whiteSpace=wrap;html=1;align=center;strokeWidth=2;" parent="1" vertex="1">
          <mxGeometry x="810" y="180" width="120" height="60" as="geometry" />
        </mxCell>
        <mxCell id="GWfHcdHAM4uaOT78eh-u-48" value="" style="endArrow=none;html=1;rounded=0;entryX=1;entryY=0.5;entryDx=0;entryDy=0;strokeWidth=2;exitX=0;exitY=0.5;exitDx=0;exitDy=0;" parent="1" source="GWfHcdHAM4uaOT78eh-u-30" target="GWfHcdHAM4uaOT78eh-u-47" edge="1">
          <mxGeometry relative="1" as="geometry">
            <mxPoint x="1282" y="210" as="sourcePoint" />
            <mxPoint x="940" y="309" as="targetPoint" />
          </mxGeometry>
        </mxCell>
        <mxCell id="GWfHcdHAM4uaOT78eh-u-49" value="" style="endArrow=none;html=1;rounded=0;exitX=0;exitY=0.5;exitDx=0;exitDy=0;entryX=0.651;entryY=0.003;entryDx=0;entryDy=0;strokeWidth=2;entryPerimeter=0;" parent="1" source="GWfHcdHAM4uaOT78eh-u-47" target="GWfHcdHAM4uaOT78eh-u-3" edge="1">
          <mxGeometry relative="1" as="geometry">
            <mxPoint x="810" y="220" as="sourcePoint" />
            <mxPoint x="970" y="220" as="targetPoint" />
            <Array as="points">
              <mxPoint x="555" y="210" />
            </Array>
          </mxGeometry>
        </mxCell>
        <mxCell id="GWfHcdHAM4uaOT78eh-u-50" value="&lt;b&gt;&lt;font style=&quot;font-size: 16px;&quot;&gt;Asignar&lt;/font&gt;&lt;/b&gt;" style="shape=rhombus;perimeter=rhombusPerimeter;whiteSpace=wrap;html=1;align=center;strokeWidth=2;" parent="1" vertex="1">
          <mxGeometry x="250" y="420" width="120" height="60" as="geometry" />
        </mxCell>
        <mxCell id="GWfHcdHAM4uaOT78eh-u-51" value="" style="shape=link;html=1;rounded=0;entryX=0.5;entryY=1;entryDx=0;entryDy=0;exitX=0.5;exitY=0;exitDx=0;exitDy=0;strokeWidth=2;" parent="1" source="GWfHcdHAM4uaOT78eh-u-50" target="GWfHcdHAM4uaOT78eh-u-2" edge="1">
          <mxGeometry relative="1" as="geometry">
            <mxPoint x="279.47" y="420" as="sourcePoint" />
            <mxPoint x="279.47" y="360" as="targetPoint" />
          </mxGeometry>
        </mxCell>
        <mxCell id="GWfHcdHAM4uaOT78eh-u-52" value="&lt;div&gt;&lt;br&gt;&lt;/div&gt;&lt;div&gt;&lt;br&gt;&lt;/div&gt;" style="resizable=0;html=1;whiteSpace=wrap;align=right;verticalAlign=bottom;" parent="GWfHcdHAM4uaOT78eh-u-51" connectable="0" vertex="1">
          <mxGeometry x="1" relative="1" as="geometry" />
        </mxCell>
        <mxCell id="GWfHcdHAM4uaOT78eh-u-53" value="" style="edgeStyle=elbowEdgeStyle;elbow=horizontal;endArrow=classic;html=1;curved=0;rounded=0;endSize=8;startSize=8;entryX=0.5;entryY=1;entryDx=0;entryDy=0;strokeWidth=2;exitX=1;exitY=0.5;exitDx=0;exitDy=0;" parent="1" source="GWfHcdHAM4uaOT78eh-u-50" edge="1">
          <mxGeometry width="50" height="50" relative="1" as="geometry">
            <mxPoint x="310" y="459.99999999999955" as="sourcePoint" />
            <mxPoint x="1080" y="230" as="targetPoint" />
            <Array as="points">
              <mxPoint x="1080" y="370" />
            </Array>
          </mxGeometry>
        </mxCell>
        <mxCell id="GWfHcdHAM4uaOT78eh-u-80" style="edgeStyle=orthogonalEdgeStyle;rounded=0;orthogonalLoop=1;jettySize=auto;html=1;exitX=0.25;exitY=1;exitDx=0;exitDy=0;entryX=0.5;entryY=0;entryDx=0;entryDy=0;shape=link;strokeWidth=2;" parent="1" source="GWfHcdHAM4uaOT78eh-u-54" target="GWfHcdHAM4uaOT78eh-u-78" edge="1">
          <mxGeometry relative="1" as="geometry" />
        </mxCell>
        <mxCell id="GWfHcdHAM4uaOT78eh-u-81" style="rounded=0;orthogonalLoop=1;jettySize=auto;html=1;exitX=0.5;exitY=0;exitDx=0;exitDy=0;strokeWidth=2;endArrow=none;endFill=0;entryX=0.5;entryY=1;entryDx=0;entryDy=0;" parent="1" source="GWfHcdHAM4uaOT78eh-u-54" target="GWfHcdHAM4uaOT78eh-u-85" edge="1">
          <mxGeometry relative="1" as="geometry">
            <mxPoint x="2011" y="100" as="targetPoint" />
          </mxGeometry>
        </mxCell>
        <mxCell id="GWfHcdHAM4uaOT78eh-u-54" value="&lt;font style=&quot;font-size: 16px;&quot;&gt;&lt;b&gt;Departamento&lt;/b&gt;&lt;/font&gt;" style="whiteSpace=wrap;html=1;align=center;strokeWidth=2;" parent="1" vertex="1">
          <mxGeometry x="1948" y="170" width="126" height="40" as="geometry" />
        </mxCell>
        <mxCell id="GWfHcdHAM4uaOT78eh-u-57" value="&lt;font style=&quot;font-size: 16px;&quot;&gt;&lt;b&gt;Dirigir&lt;/b&gt;&lt;/font&gt;" style="shape=rhombus;perimeter=rhombusPerimeter;whiteSpace=wrap;html=1;align=center;strokeWidth=2;" parent="1" vertex="1">
          <mxGeometry x="1400" y="160" width="120" height="60" as="geometry" />
        </mxCell>
        <mxCell id="GWfHcdHAM4uaOT78eh-u-58" value="" style="endArrow=classic;html=1;rounded=0;endSize=8;startSize=8;strokeWidth=2;exitX=0.046;exitY=0.468;exitDx=0;exitDy=0;exitPerimeter=0;entryX=1;entryY=0;entryDx=0;entryDy=0;strokeColor=default;" parent="1" source="GWfHcdHAM4uaOT78eh-u-57" target="GWfHcdHAM4uaOT78eh-u-30" edge="1">
          <mxGeometry width="50" height="50" relative="1" as="geometry">
            <mxPoint x="1370" y="209" as="sourcePoint" />
            <mxPoint x="1190" y="210" as="targetPoint" />
          </mxGeometry>
        </mxCell>
        <mxCell id="GWfHcdHAM4uaOT78eh-u-59" value="" style="elbow=horizontal;endArrow=classic;html=1;rounded=0;endSize=8;startSize=8;exitX=1;exitY=0.5;exitDx=0;exitDy=0;strokeWidth=2;" parent="1" source="GWfHcdHAM4uaOT78eh-u-57" target="GWfHcdHAM4uaOT78eh-u-54" edge="1">
          <mxGeometry width="50" height="50" relative="1" as="geometry">
            <mxPoint x="1250" y="190" as="sourcePoint" />
            <mxPoint x="1300" y="140" as="targetPoint" />
          </mxGeometry>
        </mxCell>
        <mxCell id="GWfHcdHAM4uaOT78eh-u-60" value="" style="endArrow=none;html=1;rounded=0;strokeWidth=2;" parent="1" source="GWfHcdHAM4uaOT78eh-u-61" target="GWfHcdHAM4uaOT78eh-u-57" edge="1">
          <mxGeometry relative="1" as="geometry">
            <mxPoint x="1450" y="120" as="sourcePoint" />
            <mxPoint x="1450" y="180" as="targetPoint" />
          </mxGeometry>
        </mxCell>
        <mxCell id="GWfHcdHAM4uaOT78eh-u-61" value="&lt;font style=&quot;font-size: 16px;&quot;&gt;&lt;b&gt;Periodo&lt;/b&gt;&lt;/font&gt;" style="ellipse;whiteSpace=wrap;html=1;align=center;strokeWidth=2;" parent="1" vertex="1">
          <mxGeometry x="1410" y="30" width="100" height="40" as="geometry" />
        </mxCell>
        <mxCell id="GWfHcdHAM4uaOT78eh-u-67" value="" style="shape=link;html=1;rounded=0;entryX=0.908;entryY=1;entryDx=0;entryDy=0;strokeWidth=2;entryPerimeter=0;" parent="1" source="GWfHcdHAM4uaOT78eh-u-69" target="GWfHcdHAM4uaOT78eh-u-30" edge="1">
          <mxGeometry relative="1" as="geometry">
            <mxPoint x="1450" y="250" as="sourcePoint" />
            <mxPoint x="1290" y="270" as="targetPoint" />
            <Array as="points">
              <mxPoint x="1179" y="300" />
            </Array>
          </mxGeometry>
        </mxCell>
        <mxCell id="GWfHcdHAM4uaOT78eh-u-68" value="&lt;div&gt;&lt;br&gt;&lt;/div&gt;&lt;div&gt;&lt;br&gt;&lt;/div&gt;" style="resizable=0;html=1;whiteSpace=wrap;align=right;verticalAlign=bottom;" parent="GWfHcdHAM4uaOT78eh-u-67" connectable="0" vertex="1">
          <mxGeometry x="1" relative="1" as="geometry" />
        </mxCell>
        <mxCell id="GWfHcdHAM4uaOT78eh-u-69" value="&lt;font style=&quot;font-size: 16px;&quot;&gt;&lt;b&gt;Tener&lt;/b&gt;&lt;/font&gt;" style="shape=rhombus;double=1;perimeter=rhombusPerimeter;whiteSpace=wrap;html=1;align=center;strokeWidth=2;" parent="1" vertex="1">
          <mxGeometry x="1400" y="270" width="120" height="60" as="geometry" />
        </mxCell>
        <mxCell id="GWfHcdHAM4uaOT78eh-u-70" value="" style="endArrow=classic;html=1;rounded=0;strokeWidth=2;startArrow=none;startFill=0;" parent="1" source="GWfHcdHAM4uaOT78eh-u-69" edge="1">
          <mxGeometry width="50" height="50" relative="1" as="geometry">
            <mxPoint x="1400" y="260" as="sourcePoint" />
            <mxPoint x="1670" y="300" as="targetPoint" />
          </mxGeometry>
        </mxCell>
        <mxCell id="GWfHcdHAM4uaOT78eh-u-71" value="" style="endArrow=none;html=1;rounded=0;strokeWidth=2;startArrow=none;startFill=0;endFill=0;jumpSize=3;exitX=0.957;exitY=0.557;exitDx=0;exitDy=0;exitPerimeter=0;" parent="1" source="GWfHcdHAM4uaOT78eh-u-69" edge="1">
          <mxGeometry width="50" height="50" relative="1" as="geometry">
            <mxPoint x="1510" y="310" as="sourcePoint" />
            <mxPoint x="1660" y="303" as="targetPoint" />
          </mxGeometry>
        </mxCell>
        <mxCell id="GWfHcdHAM4uaOT78eh-u-79" style="edgeStyle=orthogonalEdgeStyle;rounded=0;orthogonalLoop=1;jettySize=auto;html=1;exitX=1;exitY=0.5;exitDx=0;exitDy=0;entryX=0;entryY=0.5;entryDx=0;entryDy=0;strokeWidth=2;shape=link;" parent="1" source="GWfHcdHAM4uaOT78eh-u-72" target="GWfHcdHAM4uaOT78eh-u-78" edge="1">
          <mxGeometry relative="1" as="geometry" />
        </mxCell>
        <mxCell id="GWfHcdHAM4uaOT78eh-u-72" value="&lt;b&gt;&lt;font style=&quot;font-size: 16px;&quot;&gt;Cargo&lt;/font&gt;&lt;/b&gt;" style="shape=ext;margin=3;double=1;whiteSpace=wrap;html=1;align=center;strokeWidth=2;" parent="1" vertex="1">
          <mxGeometry x="1670" y="280" width="100" height="40" as="geometry" />
        </mxCell>
        <mxCell id="GWfHcdHAM4uaOT78eh-u-73" value="" style="endArrow=none;html=1;rounded=0;strokeWidth=2;exitX=0.25;exitY=1;exitDx=0;exitDy=0;entryX=0.5;entryY=0;entryDx=0;entryDy=0;" parent="1" source="GWfHcdHAM4uaOT78eh-u-72" target="GWfHcdHAM4uaOT78eh-u-75" edge="1">
          <mxGeometry relative="1" as="geometry">
            <mxPoint x="1710" y="320" as="sourcePoint" />
            <mxPoint x="1670" y="400" as="targetPoint" />
          </mxGeometry>
        </mxCell>
        <mxCell id="GWfHcdHAM4uaOT78eh-u-74" value="" style="endArrow=none;html=1;rounded=0;strokeWidth=2;exitX=0.5;exitY=1;exitDx=0;exitDy=0;entryX=0.5;entryY=0;entryDx=0;entryDy=0;" parent="1" source="GWfHcdHAM4uaOT78eh-u-72" target="GWfHcdHAM4uaOT78eh-u-77" edge="1">
          <mxGeometry relative="1" as="geometry">
            <mxPoint x="1705" y="330" as="sourcePoint" />
            <mxPoint x="1760" y="400" as="targetPoint" />
          </mxGeometry>
        </mxCell>
        <mxCell id="GWfHcdHAM4uaOT78eh-u-75" value="&lt;font style=&quot;font-size: 16px;&quot;&gt;&lt;b&gt;Periodo&lt;/b&gt;&lt;/font&gt;" style="ellipse;whiteSpace=wrap;html=1;align=center;strokeWidth=2;" parent="1" vertex="1">
          <mxGeometry x="1600" y="420" width="100" height="40" as="geometry" />
        </mxCell>
        <mxCell id="GWfHcdHAM4uaOT78eh-u-77" value="&lt;span style=&quot;border-bottom: 1px dotted&quot;&gt;&lt;b&gt;&lt;font style=&quot;font-size: 16px;&quot;&gt;Nombre&lt;/font&gt;&lt;/b&gt;&lt;/span&gt;" style="ellipse;whiteSpace=wrap;html=1;align=center;strokeWidth=2;" parent="1" vertex="1">
          <mxGeometry x="1730" y="420" width="100" height="40" as="geometry" />
        </mxCell>
        <mxCell id="GWfHcdHAM4uaOT78eh-u-78" value="&lt;font style=&quot;font-size: 16px;&quot;&gt;&lt;b&gt;Ocupar&lt;/b&gt;&lt;/font&gt;" style="shape=rhombus;double=1;perimeter=rhombusPerimeter;whiteSpace=wrap;html=1;align=center;strokeWidth=2;" parent="1" vertex="1">
          <mxGeometry x="1920" y="270" width="120" height="60" as="geometry" />
        </mxCell>
        <mxCell id="GWfHcdHAM4uaOT78eh-u-82" style="rounded=0;orthogonalLoop=1;jettySize=auto;html=1;strokeWidth=2;endArrow=none;endFill=0;entryX=0.5;entryY=1;entryDx=0;entryDy=0;exitX=1;exitY=0.5;exitDx=0;exitDy=0;" parent="1" source="GWfHcdHAM4uaOT78eh-u-54" target="GWfHcdHAM4uaOT78eh-u-84" edge="1">
          <mxGeometry relative="1" as="geometry">
            <mxPoint x="1910" y="100" as="targetPoint" />
            <mxPoint x="2080" y="190" as="sourcePoint" />
          </mxGeometry>
        </mxCell>
        <mxCell id="GWfHcdHAM4uaOT78eh-u-83" style="rounded=0;orthogonalLoop=1;jettySize=auto;html=1;strokeWidth=2;endArrow=none;endFill=0;entryX=0.41;entryY=1.05;entryDx=0;entryDy=0;entryPerimeter=0;exitX=1;exitY=0.25;exitDx=0;exitDy=0;" parent="1" source="GWfHcdHAM4uaOT78eh-u-54" target="GWfHcdHAM4uaOT78eh-u-86" edge="1">
          <mxGeometry relative="1" as="geometry">
            <mxPoint x="2120" y="90" as="targetPoint" />
            <mxPoint x="2080" y="180" as="sourcePoint" />
          </mxGeometry>
        </mxCell>
        <mxCell id="GWfHcdHAM4uaOT78eh-u-84" value="&lt;font style=&quot;font-size: 16px;&quot;&gt;&lt;b&gt;Nombre&lt;/b&gt;&lt;/font&gt;" style="ellipse;whiteSpace=wrap;html=1;align=center;strokeWidth=2;" parent="1" vertex="1">
          <mxGeometry x="2190" y="110" width="100" height="40" as="geometry" />
        </mxCell>
        <mxCell id="GWfHcdHAM4uaOT78eh-u-85" value="&lt;font style=&quot;font-size: 16px;&quot;&gt;&lt;b&gt;Oficina&lt;/b&gt;&lt;/font&gt;" style="ellipse;whiteSpace=wrap;html=1;align=center;strokeWidth=2;" parent="1" vertex="1">
          <mxGeometry x="2150" y="220" width="100" height="40" as="geometry" />
        </mxCell>
        <mxCell id="GWfHcdHAM4uaOT78eh-u-86" value="&lt;font style=&quot;font-size: 16px;&quot;&gt;&lt;b&gt;Numero&lt;/b&gt;&lt;/font&gt;" style="ellipse;whiteSpace=wrap;html=1;align=center;fontStyle=4;strokeWidth=2;" parent="1" vertex="1">
          <mxGeometry x="2140" y="20" width="100" height="40" as="geometry" />
        </mxCell>
        <mxCell id="GWfHcdHAM4uaOT78eh-u-90" value="&lt;font style=&quot;font-size: 16px;&quot;&gt;&lt;b&gt;Trabajar&lt;/b&gt;&lt;/font&gt;" style="shape=rhombus;perimeter=rhombusPerimeter;whiteSpace=wrap;html=1;align=center;strokeWidth=2;" parent="1" vertex="1">
          <mxGeometry x="1270" y="480" width="120" height="60" as="geometry" />
        </mxCell>
        <mxCell id="hzmN8voi_zmFuD12OqxF-17" style="edgeStyle=orthogonalEdgeStyle;rounded=0;orthogonalLoop=1;jettySize=auto;html=1;exitX=0.5;exitY=1;exitDx=0;exitDy=0;entryX=0.25;entryY=0;entryDx=0;entryDy=0;shape=link;strokeWidth=2;" parent="1" source="GWfHcdHAM4uaOT78eh-u-91" target="GWfHcdHAM4uaOT78eh-u-92" edge="1">
          <mxGeometry relative="1" as="geometry" />
        </mxCell>
        <mxCell id="GWfHcdHAM4uaOT78eh-u-91" value="&lt;font style=&quot;font-size: 16px;&quot;&gt;&lt;b&gt;Administrar&lt;/b&gt;&lt;/font&gt;" style="shape=rhombus;perimeter=rhombusPerimeter;whiteSpace=wrap;html=1;align=center;strokeWidth=2;" parent="1" vertex="1">
          <mxGeometry x="1040" y="610" width="120" height="60" as="geometry" />
        </mxCell>
        <mxCell id="hzmN8voi_zmFuD12OqxF-21" style="edgeStyle=orthogonalEdgeStyle;rounded=0;orthogonalLoop=1;jettySize=auto;html=1;exitX=0;exitY=0.5;exitDx=0;exitDy=0;entryX=1;entryY=0.5;entryDx=0;entryDy=0;endArrow=none;endFill=0;strokeWidth=2;" parent="1" source="GWfHcdHAM4uaOT78eh-u-92" target="hzmN8voi_zmFuD12OqxF-20" edge="1">
          <mxGeometry relative="1" as="geometry" />
        </mxCell>
        <mxCell id="GWfHcdHAM4uaOT78eh-u-92" value="&lt;font style=&quot;font-size: 16px;&quot;&gt;&lt;b&gt;Proyecto&lt;/b&gt;&lt;/font&gt;" style="whiteSpace=wrap;html=1;align=center;strokeWidth=2;" parent="1" vertex="1">
          <mxGeometry x="1270" y="730" width="120" height="40" as="geometry" />
        </mxCell>
        <mxCell id="hzmN8voi_zmFuD12OqxF-1" value="&lt;font style=&quot;font-size: 16px;&quot;&gt;&lt;b&gt;Presupuesto&lt;/b&gt;&lt;/font&gt;" style="ellipse;whiteSpace=wrap;html=1;align=center;strokeWidth=2;" parent="1" vertex="1">
          <mxGeometry x="1191" y="840" width="100" height="40" as="geometry" />
        </mxCell>
        <mxCell id="hzmN8voi_zmFuD12OqxF-2" value="&lt;font style=&quot;font-size: 16px;&quot;&gt;&lt;b&gt;IDproyecto&lt;/b&gt;&lt;/font&gt;" style="ellipse;whiteSpace=wrap;html=1;align=center;fontStyle=4;strokeWidth=2;" parent="1" vertex="1">
          <mxGeometry x="1360" y="840" width="100" height="40" as="geometry" />
        </mxCell>
        <mxCell id="hzmN8voi_zmFuD12OqxF-3" value="" style="endArrow=none;html=1;rounded=0;strokeWidth=2;exitX=0.25;exitY=1;exitDx=0;exitDy=0;entryX=0.5;entryY=0;entryDx=0;entryDy=0;" parent="1" source="GWfHcdHAM4uaOT78eh-u-92" target="hzmN8voi_zmFuD12OqxF-1" edge="1">
          <mxGeometry relative="1" as="geometry">
            <mxPoint x="1365" y="780" as="sourcePoint" />
            <mxPoint x="1320" y="880" as="targetPoint" />
          </mxGeometry>
        </mxCell>
        <mxCell id="hzmN8voi_zmFuD12OqxF-4" value="" style="endArrow=none;html=1;rounded=0;strokeWidth=2;exitX=0.597;exitY=1.067;exitDx=0;exitDy=0;entryX=0.383;entryY=0.067;entryDx=0;entryDy=0;exitPerimeter=0;entryPerimeter=0;" parent="1" source="GWfHcdHAM4uaOT78eh-u-92" target="hzmN8voi_zmFuD12OqxF-2" edge="1">
          <mxGeometry relative="1" as="geometry">
            <mxPoint x="1482.5" y="810" as="sourcePoint" />
            <mxPoint x="1437.5" y="910" as="targetPoint" />
          </mxGeometry>
        </mxCell>
        <mxCell id="hzmN8voi_zmFuD12OqxF-5" value="" style="endArrow=none;html=1;rounded=0;strokeWidth=2;exitX=0.5;exitY=0;exitDx=0;exitDy=0;entryX=0.5;entryY=1;entryDx=0;entryDy=0;startArrow=classic;startFill=1;" parent="1" source="GWfHcdHAM4uaOT78eh-u-92" target="GWfHcdHAM4uaOT78eh-u-90" edge="1">
          <mxGeometry relative="1" as="geometry">
            <mxPoint x="1725" y="350" as="sourcePoint" />
            <mxPoint x="1680" y="450" as="targetPoint" />
          </mxGeometry>
        </mxCell>
        <mxCell id="hzmN8voi_zmFuD12OqxF-6" value="" style="endArrow=none;html=1;rounded=0;strokeWidth=2;entryX=0.5;entryY=0;entryDx=0;entryDy=0;exitX=0.5;exitY=1;exitDx=0;exitDy=0;" parent="1" source="hzmN8voi_zmFuD12OqxF-7" target="GWfHcdHAM4uaOT78eh-u-90" edge="1">
          <mxGeometry relative="1" as="geometry">
            <mxPoint x="1330" y="430" as="sourcePoint" />
            <mxPoint x="1336" y="440" as="targetPoint" />
          </mxGeometry>
        </mxCell>
        <mxCell id="hzmN8voi_zmFuD12OqxF-7" value="&lt;font style=&quot;font-size: 16px;&quot;&gt;&lt;b&gt;Horas&lt;/b&gt;&lt;/font&gt;" style="ellipse;whiteSpace=wrap;html=1;align=center;strokeWidth=2;" parent="1" vertex="1">
          <mxGeometry x="1280" y="370" width="100" height="40" as="geometry" />
        </mxCell>
        <mxCell id="hzmN8voi_zmFuD12OqxF-11" value="" style="endArrow=none;html=1;rounded=0;strokeWidth=2;startArrow=none;startFill=0;endFill=0;jumpSize=3;exitX=0.541;exitY=0.969;exitDx=0;exitDy=0;exitPerimeter=0;" parent="1" source="GWfHcdHAM4uaOT78eh-u-90" edge="1">
          <mxGeometry width="50" height="50" relative="1" as="geometry">
            <mxPoint x="1375" y="610" as="sourcePoint" />
            <mxPoint x="1335" y="720" as="targetPoint" />
          </mxGeometry>
        </mxCell>
        <mxCell id="hzmN8voi_zmFuD12OqxF-13" value="" style="endArrow=none;html=1;rounded=0;strokeWidth=2;entryX=0;entryY=0;entryDx=0;entryDy=0;exitX=0.5;exitY=1;exitDx=0;exitDy=0;" parent="1" source="hzmN8voi_zmFuD12OqxF-15" target="GWfHcdHAM4uaOT78eh-u-91" edge="1">
          <mxGeometry relative="1" as="geometry">
            <mxPoint x="1020" y="560" as="sourcePoint" />
            <mxPoint x="1040" y="610" as="targetPoint" />
          </mxGeometry>
        </mxCell>
        <mxCell id="hzmN8voi_zmFuD12OqxF-14" value="" style="endArrow=none;html=1;rounded=0;strokeWidth=2;entryX=1;entryY=0;entryDx=0;entryDy=0;exitX=0.5;exitY=1;exitDx=0;exitDy=0;" parent="1" source="hzmN8voi_zmFuD12OqxF-16" target="GWfHcdHAM4uaOT78eh-u-91" edge="1">
          <mxGeometry relative="1" as="geometry">
            <mxPoint x="1160" y="570" as="sourcePoint" />
            <mxPoint x="1080" y="635" as="targetPoint" />
          </mxGeometry>
        </mxCell>
        <mxCell id="hzmN8voi_zmFuD12OqxF-15" value="&lt;font style=&quot;font-size: 16px;&quot;&gt;&lt;b&gt;FechaInicio&lt;/b&gt;&lt;/font&gt;" style="ellipse;whiteSpace=wrap;html=1;align=center;strokeWidth=2;" parent="1" vertex="1">
          <mxGeometry x="970" y="560" width="100" height="40" as="geometry" />
        </mxCell>
        <mxCell id="hzmN8voi_zmFuD12OqxF-16" value="&lt;font style=&quot;font-size: 16px;&quot;&gt;&lt;b&gt;FechaFin&lt;/b&gt;&lt;/font&gt;" style="ellipse;whiteSpace=wrap;html=1;align=center;strokeWidth=2;" parent="1" vertex="1">
          <mxGeometry x="1130" y="565" width="100" height="40" as="geometry" />
        </mxCell>
        <mxCell id="hzmN8voi_zmFuD12OqxF-18" value="" style="endArrow=none;html=1;rounded=0;entryX=0;entryY=0.5;entryDx=0;entryDy=0;strokeWidth=2;" parent="1" target="GWfHcdHAM4uaOT78eh-u-14" edge="1">
          <mxGeometry relative="1" as="geometry">
            <mxPoint x="170" y="340" as="sourcePoint" />
            <mxPoint x="230" y="340" as="targetPoint" />
          </mxGeometry>
        </mxCell>
        <mxCell id="GWfHcdHAM4uaOT78eh-u-14" value="&lt;font style=&quot;font-size: 16px;&quot;&gt;&lt;b&gt;Historial&lt;/b&gt;&lt;/font&gt;" style="ellipse;whiteSpace=wrap;html=1;align=center;strokeWidth=2;" parent="1" vertex="1">
          <mxGeometry x="120" y="320" width="100" height="40" as="geometry" />
        </mxCell>
        <mxCell id="hzmN8voi_zmFuD12OqxF-19" value="" style="endArrow=classic;html=1;rounded=0;strokeWidth=2;exitX=0;exitY=0.5;exitDx=0;exitDy=0;startArrow=none;startFill=0;endFill=1;jumpSize=2;shape=link;" parent="1" edge="1" source="hzmN8voi_zmFuD12OqxF-20">
          <mxGeometry relative="1" as="geometry">
            <mxPoint x="640.0000000000001" y="740" as="sourcePoint" />
            <mxPoint x="340" y="210" as="targetPoint" />
            <Array as="points">
              <mxPoint x="70" y="750" />
              <mxPoint x="70" y="210" />
            </Array>
          </mxGeometry>
        </mxCell>
        <mxCell id="Ch5rpcA0SC2r3N9xs6gZ-2" style="rounded=0;orthogonalLoop=1;jettySize=auto;html=1;exitX=0.5;exitY=0;exitDx=0;exitDy=0;entryX=0.5;entryY=1;entryDx=0;entryDy=0;endArrow=none;endFill=0;strokeWidth=2;" edge="1" parent="1" source="hzmN8voi_zmFuD12OqxF-20" target="Ch5rpcA0SC2r3N9xs6gZ-1">
          <mxGeometry relative="1" as="geometry" />
        </mxCell>
        <mxCell id="hzmN8voi_zmFuD12OqxF-20" value="&lt;font style=&quot;font-size: 16px;&quot;&gt;&lt;b&gt;Participar&lt;/b&gt;&lt;/font&gt;" style="shape=rhombus;perimeter=rhombusPerimeter;whiteSpace=wrap;html=1;align=center;strokeWidth=2;" parent="1" vertex="1">
          <mxGeometry x="640" y="720" width="120" height="60" as="geometry" />
        </mxCell>
        <mxCell id="hzmN8voi_zmFuD12OqxF-24" style="rounded=0;orthogonalLoop=1;jettySize=auto;html=1;exitX=1;exitY=0.5;exitDx=0;exitDy=0;entryX=0.5;entryY=0;entryDx=0;entryDy=0;strokeWidth=2;" parent="1" source="hzmN8voi_zmFuD12OqxF-23" target="GWfHcdHAM4uaOT78eh-u-54" edge="1">
          <mxGeometry relative="1" as="geometry">
            <Array as="points">
              <mxPoint x="2011" y="-130" />
            </Array>
          </mxGeometry>
        </mxCell>
        <mxCell id="hzmN8voi_zmFuD12OqxF-23" value="&lt;font style=&quot;font-size: 16px;&quot;&gt;&lt;b&gt;Adscribir&lt;/b&gt;&lt;/font&gt;" style="shape=rhombus;perimeter=rhombusPerimeter;whiteSpace=wrap;html=1;align=center;strokeWidth=2;" parent="1" vertex="1">
          <mxGeometry x="1640" y="-160" width="120" height="60" as="geometry" />
        </mxCell>
        <mxCell id="hzmN8voi_zmFuD12OqxF-27" value="" style="endArrow=classic;html=1;rounded=0;strokeWidth=2;strokeColor=#000000;" parent="1" edge="1">
          <mxGeometry width="50" height="50" relative="1" as="geometry">
            <mxPoint x="340" y="210" as="sourcePoint" />
            <mxPoint x="350" y="210" as="targetPoint" />
          </mxGeometry>
        </mxCell>
        <mxCell id="Ch5rpcA0SC2r3N9xs6gZ-1" value="&lt;font style=&quot;font-size: 16px;&quot;&gt;&lt;b&gt;FechaInicio&lt;/b&gt;&lt;/font&gt;" style="ellipse;whiteSpace=wrap;html=1;align=center;strokeWidth=2;" vertex="1" parent="1">
          <mxGeometry x="650" y="600" width="100" height="40" as="geometry" />
        </mxCell>
        <mxCell id="Ch5rpcA0SC2r3N9xs6gZ-3" value="&lt;font style=&quot;font-size: 16px;&quot;&gt;&lt;b&gt;FechaFin&lt;/b&gt;&lt;/font&gt;" style="ellipse;whiteSpace=wrap;html=1;align=center;strokeWidth=2;" vertex="1" parent="1">
          <mxGeometry x="760" y="650" width="100" height="40" as="geometry" />
        </mxCell>
        <mxCell id="Ch5rpcA0SC2r3N9xs6gZ-4" style="rounded=0;orthogonalLoop=1;jettySize=auto;html=1;exitX=0.697;exitY=0.182;exitDx=0;exitDy=0;entryX=0.393;entryY=0.996;entryDx=0;entryDy=0;endArrow=none;endFill=0;strokeWidth=2;exitPerimeter=0;entryPerimeter=0;" edge="1" parent="1" source="hzmN8voi_zmFuD12OqxF-20" target="Ch5rpcA0SC2r3N9xs6gZ-3">
          <mxGeometry relative="1" as="geometry">
            <mxPoint x="680" y="745" as="sourcePoint" />
            <mxPoint x="590" y="660" as="targetPoint" />
          </mxGeometry>
        </mxCell>
        <mxCell id="Ch5rpcA0SC2r3N9xs6gZ-5" value="&lt;font style=&quot;font-size: 16px;&quot;&gt;&lt;b&gt;Horas&lt;/b&gt;&lt;/font&gt;" style="ellipse;whiteSpace=wrap;html=1;align=center;strokeWidth=2;" vertex="1" parent="1">
          <mxGeometry x="530" y="650" width="100" height="40" as="geometry" />
        </mxCell>
        <mxCell id="Ch5rpcA0SC2r3N9xs6gZ-6" style="rounded=0;orthogonalLoop=1;jettySize=auto;html=1;exitX=0;exitY=0;exitDx=0;exitDy=0;entryX=0.5;entryY=1;entryDx=0;entryDy=0;endArrow=none;endFill=0;strokeWidth=2;" edge="1" parent="1" source="hzmN8voi_zmFuD12OqxF-20" target="Ch5rpcA0SC2r3N9xs6gZ-5">
          <mxGeometry relative="1" as="geometry">
            <mxPoint x="710" y="730" as="sourcePoint" />
            <mxPoint x="685" y="650" as="targetPoint" />
          </mxGeometry>
        </mxCell>
      </root>
    </mxGraphModel>
  </diagram>
</mxfile>
